<?xml version="1.0" standalone="no"?>
<!DOCTYPE svg PUBLIC "-//W3C//DTD SVG 20010904//EN"
 "http://www.w3.org/TR/2001/REC-SVG-20010904/DTD/svg10.dtd">
<svg version="1.0" xmlns="http://www.w3.org/2000/svg"
 width="256.000000pt" height="256.000000pt" viewBox="0 0 256.000000 256.000000"
 preserveAspectRatio="xMidYMid meet">

<g transform="translate(0.000000,256.000000) scale(0.100000,-0.100000)"
fill="#000000" stroke="none">
<path d="M1671 2260 l-435 -116 -62 -110 -62 -109 -134 -3 -134 -3 -319 -319
-320 -320 320 -320 319 -319 134 -3 134 -3 62 -109 62 -110 437 -116 c370 -99
437 -114 441 -101 22 72 226 842 226 851 0 6 -29 60 -64 121 l-65 109 65 109
c35 60 64 114 64 121 0 16 -218 830 -228 850 -6 14 -69 -1 -441 -100z m119
-217 c0 -3 -84 -152 -187 -330 l-187 -323 -385 0 -385 0 204 208 c112 114 220
224 239 244 33 34 48 40 196 79 88 22 234 60 325 84 186 49 180 47 180 38z
m218 -183 c12 -41 53 -189 91 -327 l71 -253 -71 -252 c-39 -139 -80 -288 -91
-331 -12 -43 -25 -74 -29 -70 -4 4 -91 153 -194 331 l-186 322 171 298 c202
349 211 364 215 360 2 -2 12 -37 23 -78z m-404 -1015 c104 -179 187 -328 185
-330 -4 -3 -123 26 -504 124 -148 39 -163 45 -196 79 -19 20 -127 130 -239
245 l-204 207 385 0 385 0 188 -325z"/>
</g>
</svg>
