<?xml version="1.0" standalone="no"?>
<!DOCTYPE svg PUBLIC "-//W3C//DTD SVG 20010904//EN"
 "http://www.w3.org/TR/2001/REC-SVG-20010904/DTD/svg10.dtd">
<svg version="1.0" xmlns="http://www.w3.org/2000/svg"
 width="256.000000pt" height="256.000000pt" viewBox="0 0 256.000000 256.000000"
 preserveAspectRatio="xMidYMid meet">

<g transform="translate(0.000000,256.000000) scale(0.100000,-0.100000)"
fill="#000000" stroke="none">
<path d="M2045 2355 c-27 -7 -212 -57 -410 -110 -198 -53 -368 -98 -377 -101
-15 -4 -138 -205 -138 -226 0 -4 -62 -8 -138 -8 l-137 0 -315 -315 -315 -315
315 -315 314 -314 135 -3 134 -3 63 -110 c35 -60 71 -113 81 -117 10 -4 178
-50 373 -102 455 -122 473 -126 476 -123 1 1 39 139 84 307 45 168 97 360 116
428 l33 123 -64 109 c-36 60 -65 114 -65 120 0 6 29 60 65 120 l64 109 -33
123 c-19 68 -71 261 -116 431 -46 169 -86 307 -89 306 -3 0 -28 -6 -56 -14z
m-255 -315 c0 -6 -84 -157 -187 -335 l-188 -325 -382 0 c-230 0 -383 4 -383 9
0 5 107 119 239 253 l239 243 189 49 c105 26 246 63 314 81 137 37 159 40 159
25z m256 -302 c30 -106 70 -253 90 -325 l37 -133 -41 -147 c-73 -265 -112
-407 -128 -462 -13 -45 -17 -52 -29 -40 -16 18 -375 637 -375 649 0 9 355 626
373 648 5 7 12 10 15 8 2 -3 29 -92 58 -198z m-556 -685 c41 -71 112 -193 158
-273 147 -253 156 -270 138 -270 -14 0 -219 51 -556 139 l-105 28 -235 237
c-129 130 -236 244 -238 251 -3 13 50 15 380 15 l384 0 74 -127z"/>
</g>
</svg>
